<?xml version="1.0" encoding="UTF-8" standalone="no"?>
<svg
   xmlns:dc="http://purl.org/dc/elements/1.1/"
   xmlns:cc="http://creativecommons.org/ns#"
   xmlns:rdf="http://www.w3.org/1999/02/22-rdf-syntax-ns#"
   xmlns:svg="http://www.w3.org/2000/svg"
   xmlns="http://www.w3.org/2000/svg"
   version="1.1"
   id="svg4270"
   viewBox="0 0 24 24"
   height="24"
   width="24">
  <metadata
     id="metadata4280">
    <rdf:RDF>
      <cc:Work
         rdf:about="">
        <dc:format>image/svg+xml</dc:format>
        <dc:type
           rdf:resource="http://purl.org/dc/dcmitype/StillImage" />
        <dc:title></dc:title>
      </cc:Work>
    </rdf:RDF>
  </metadata>
  <defs
     id="defs4278" />
  <path
     id="path4272"
     fill="none"
     d="M0 0h24v24H0z" />
  <path
     id="path4274"
     d="M 7.6035156 3.1054688 L 3.6035156 7.1054688 L 4.3085938 7.8105469 L 7.1035156 5.0195312 L 7.1035156 11.105469 L 8.1035156 11.105469 L 8.1035156 5.0195312 L 10.892578 7.8144531 L 11.603516 7.1054688 L 7.6035156 3.1054688 z M 16.589844 5.5898438 L 10.25 11.929688 L 11.660156 13.339844 L 18 7 L 16.589844 5.5898438 z M 22.240234 5.5898438 L 11.660156 16.169922 L 7.4804688 12 L 6.0703125 13.410156 L 11.660156 19 L 23.660156 7 L 22.240234 5.5898438 z M 1.8300781 12 L 0.41015625 13.410156 L 6 19 L 7.4101562 17.589844 L 1.8300781 12 z " />
  <path
     id="path5582"
     d="m 1.6027245,1.1053938 12.0000005,0 0,12.0000002 -12.0000005,0 0,-12.0000002 z"
     style="fill:none" />
</svg>
