<?xml version="1.0" encoding="UTF-8" standalone="no"?>
<svg
   xmlns:dc="http://purl.org/dc/elements/1.1/"
   xmlns:cc="http://creativecommons.org/ns#"
   xmlns:rdf="http://www.w3.org/1999/02/22-rdf-syntax-ns#"
   xmlns:svg="http://www.w3.org/2000/svg"
   xmlns="http://www.w3.org/2000/svg"
   id="svg2"
   version="1.1"
   viewBox="0 0 192 192"
   height="192pt"
   width="192pt">
  <metadata
     id="metadata377">
    <rdf:RDF>
      <cc:Work
         rdf:about="">
        <dc:format>image/svg+xml</dc:format>
        <dc:type
           rdf:resource="http://purl.org/dc/dcmitype/StillImage" />
        <dc:title></dc:title>
      </cc:Work>
    </rdf:RDF>
  </metadata>
  <defs
     id="defs4">
    <filter
       id="filter5064"
       style="color-interpolation-filters:sRGB;">
      <feFlood
         id="feFlood5066"
         result="flood"
         flood-color="rgb(0,0,0)"
         flood-opacity="0.498039" />
      <feComposite
         id="feComposite5068"
         result="composite1"
         operator="in"
         in2="SourceGraphic"
         in="flood" />
      <feGaussianBlur
         id="feGaussianBlur5070"
         result="blur"
         stdDeviation="0"
         in="composite1" />
      <feOffset
         id="feOffset5072"
         result="offset"
         dy="0.5"
         dx="0.5" />
      <feComposite
         id="feComposite5074"
         result="composite2"
         operator="over"
         in2="offset"
         in="SourceGraphic" />
    </filter>
    <filter
       id="filter5076"
       style="color-interpolation-filters:sRGB;">
      <feFlood
         id="feFlood5078"
         result="flood"
         flood-color="rgb(0,0,0)"
         flood-opacity="0.498039" />
      <feComposite
         id="feComposite5080"
         result="composite1"
         operator="in"
         in2="SourceGraphic"
         in="flood" />
      <feGaussianBlur
         id="feGaussianBlur5082"
         result="blur"
         stdDeviation="0"
         in="composite1" />
      <feOffset
         id="feOffset5084"
         result="offset"
         dy="0.5"
         dx="0.5" />
      <feComposite
         id="feComposite5086"
         result="composite2"
         operator="over"
         in2="offset"
         in="SourceGraphic" />
    </filter>
  </defs>
  <g
     style="display:inline"
     id="layer2">
    <circle
       r="88.215279"
       cy="95.861191"
       cx="95.874687"
       id="path4522"
       style="fill:#0288d1;fill-opacity:1;stroke:none;stroke-width:0.5;stroke-linejoin:miter;stroke-miterlimit:4;stroke-dasharray:none;stroke-opacity:0.24537037;filter:url(#filter5064)" />
  </g>
  <g
     id="layer3">
    <path
       style="fill:#ffffff;fill-opacity:1;stroke:none;stroke-width:0.5;stroke-linejoin:miter;stroke-miterlimit:4;stroke-dasharray:none;stroke-opacity:0.24537037;filter:url(#filter5076)"
       d="m 148.5625,21.032813 c -0.26572,0.01622 -0.534,0.05799 -0.80156,0.129687 L 20.915625,55.151562 C 17.69561,61.146554 15.204467,67.50529 13.495313,74.092187 l 138.503127,-37.1125 c 2.14049,-0.573542 3.40166,-2.757945 2.82812,-4.898437 l -2.16718,-8.089063 c -0.50185,-1.872929 -2.23687,-3.072884 -4.09688,-2.959374 z M 124.69218,55.5875 c -0.26571,0.01622 -0.534,0.05956 -0.80156,0.13125 L 11.20625,85.912496 c -0.407804,3.300793 -0.622233,6.62261 -0.642188,9.94844 0.01581,2.365181 0.129967,4.728684 0.342188,7.084374 L 128.12969,71.535938 c 2.14049,-0.573544 3.40166,-2.757946 2.82813,-4.898438 l -2.16876,-8.090625 c -0.50184,-1.87293 -2.23686,-3.072885 -4.09688,-2.959375 z m 53.40469,13.85 c -0.26571,0.01622 -0.534,0.05956 -0.80156,0.13125 L 12.557813,113.70938 c 1.144589,5.35566 2.802239,10.58867 4.95,15.62656 L 181.53282,85.385936 c 2.14048,-0.573544 3.40166,-2.759504 2.82812,-4.9 l -2.16719,-8.089061 c -0.50185,-1.87293 -2.23686,-3.072885 -4.09688,-2.959375 z m -23.87031,34.55468 c -0.26571,0.0162 -0.534,0.0596 -0.80156,0.13126 L 22.509375,139.20313 c 2.988915,5.06451 6.493488,9.80639 10.457812,14.15 L 157.66406,119.94062 c 2.14049,-0.57354 3.40167,-2.75794 2.82812,-4.89844 l -2.16718,-8.09062 c -0.50185,-1.87293 -2.23842,-3.07288 -4.09844,-2.95938 z"
       id="rect4564" />
  </g>
</svg>
